# xmcd
#
# Track frame offsets:
#	150
#	5621
#	20677
#	32952
#	46739
#	57853
#	75474
#	92069
#	108016
#	120696
#	138371
#	154210
#	169293
#	179651
#	209935
#	227421
#	243206
#	258802
#	272994
#	287861
#	302026
#	317298
#
# Disc length: 4445 seconds
#
# Revision: 0
# Processed by: cddbd v1.5.2PL0 Copyright (c) Steve Scherf et al.
# Submitted via: EasyCDDAExtractor 16.0.6.1
#
DISCID=2e115b16
DTITLE=Συλλογικός δίσκος - The story of greece
DYEAR=1997
DGENRE=Ποικίλη
TTITLE0=Άνευ ερμηνευτού - Χορός του Ζορμπά [Μ. Θεοδωράκης]
TTITLE1=Μερκούρη Μελίνα - Τα παιδιά του Πειραιά
TTITLE2=Άνευ ερμηνευτού - Who pays the ferryman (Ποιος πληρώνει τον βαρκάρη)
TTITLE3=Μπιθικώτσης Γρηγόρης - Άπονη ζωή
TTITLE4=Άνευ ερμηνευτού - Ο χορός του Σάκαινα [Στ. Ξαρχάκος]
TTITLE5=Μπιθικώτσης Γρηγόρης - Είμαι αητός χωρίς φτερά
TTITLE6=Άνευ ερμηνευτού - Το ζεϊμπέκικο της Ευδοκίας
TTITLE7=Γαβαλάς Πάνος-Κούρτη Ρία - Όνειρο δεμένο
TTITLE8=Μερκούρη Μελίνα - Πάμε μιά βόλτα στο φεγγάρι
TTITLE9=Καζαντζίδης Στέλιος-Μαρινέλλα - Βράχο βράχο τον καϋμό μου
TTITLE10=Μπιθικώτσης Γρηγόρης - Ένα το χελιδόνι
TTITLE11=Μερκούρη Μελίνα - Το καφενείον Η Ελλάς
TTITLE12=Λοΐζος Μάνος - Δρόμος
TTITLE13=Γαργανουράκης Χαράλαμπος - Τα λόγια και τα χρόνια τα χαμένα
TTITLE14=Άνευ ερμηνευτού - Theme de Zorba [Μ. Θεοδωράκης]
TTITLE15=Μπίνης Τάκης-Σαρρής Γ.-Αλεξίου Χ.-Μαραγκόπουλος - Στου Θωμά
TTITLE16=Καζαντζίδης Στέλιος-Μαρινέλλα-Λύδια Γ. - Συννεφιασμένη Κυριακή
TTITLE17=Μπιθικώτσης Γρηγόρης - Η Φραγκοσυριανή
TTITLE18=Γαλάνη Δήμητρα-Τσιτσάνης Βασίλης - Ακρογιαλιές δειλινά
TTITLE19=Λύδια Γιώτα - Νύχτωσε χωρίς φεγγάρι
TTITLE20=Ρεπάνης Αντώνης-Τσιτσάνης Βασίλης - Αρχόντισσα
TTITLE21=Μπιθικώτσης Γρηγόρης - Όλοι οι ρεμπέτες του ντουνιά
EXTD=YEAR: 2000\n
EXTT0=
EXTT1=
EXTT2=
EXTT3=
EXTT4=
EXTT5=
EXTT6=
EXTT7=
EXTT8=
EXTT9=
EXTT10=
EXTT11=
EXTT12=
EXTT13=
EXTT14=
EXTT15=
EXTT16=
EXTT17=
EXTT18=
EXTT19=
EXTT20=
EXTT21=
PLAYORDER=
